<svg height="158" viewBox="0 0 117 32" fill="none" xmlns="http://www.w3.org/2000/svg"
    class="css-djrpup-StyledLogo ecypi4b2">
    <path
        d="M45.093 11.152c-.504-.934-1.196-1.664-2.065-2.173-.868-.509-1.858-.766-2.934-.766-.917 0-1.755.185-2.496.556-.74.372-1.336.85-1.761 1.425l-.274.377V5.454c0-.132-.109-.24-.242-.24h-1.81a.242.242 0 00-.243.24V20.26c0 .131.109.239.242.239h1.81a.242.242 0 00.243-.24V18.4l.274.358c.425.569 1.008 1.036 1.737 1.395.729.365 1.58.55 2.52.55 1.063 0 2.047-.269 2.922-.802.875-.526 1.573-1.28 2.077-2.232.504-.957.76-2.059.76-3.268 0-1.215-.256-2.304-.76-3.25zm-2.138 5.566c-.37.67-.868 1.184-1.47 1.532a3.916 3.916 0 01-1.961.526c-.675 0-1.33-.173-1.932-.514-.607-.341-1.105-.85-1.476-1.509-.364-.652-.553-1.43-.553-2.31 0-.874.189-1.646.553-2.298.37-.646.869-1.15 1.476-1.496a3.993 3.993 0 013.887-.012 3.825 3.825 0 011.476 1.478c.365.64.553 1.412.553 2.286 0 .874-.188 1.652-.553 2.317zM59.404 14.107c0-1.182-.252-2.231-.75-3.136a5.308 5.308 0 00-2.082-2.104c-.888-.495-1.92-.748-3.06-.748-1.181 0-2.243.26-3.161.772a5.374 5.374 0 00-2.124 2.195c-.504.947-.762 2.062-.762 3.31 0 1.255.264 2.37.786 3.317a5.577 5.577 0 002.148 2.207c.912.519 1.962.784 3.114.784 1.416 0 2.622-.362 3.576-1.073a5.492 5.492 0 001.775-2.207c.072-.157-.054-.338-.222-.338h-1.968a.24.24 0 00-.203.12c-.612 1.08-1.602 1.623-2.958 1.623-.996 0-1.848-.32-2.532-.947-.69-.627-1.074-1.465-1.152-2.497l-.012-.162h9.3a.24.24 0 00.24-.211 7.16 7.16 0 00.047-.905zm-2.382-.67H49.83l.024-.168c.12-.995.516-1.803 1.17-2.394.66-.585 1.458-.887 2.376-.887 1.014 0 1.871.302 2.556.899.69.603 1.05 1.411 1.068 2.4v.15zM64.452 10.19v7.152c0 .52.126.898.372 1.137.252.232.648.348 1.218.348h1.189c.132 0 .24.11.24.244v1.388a.243.243 0 01-.24.244h-1.639c-1.116 0-1.975-.262-2.563-.788-.576-.52-.87-1.381-.87-2.573V10.19h-1.225a.243.243 0 01-.24-.245V8.607c0-.135.108-.245.24-.245h1.225V5.46c0-.135.108-.245.24-.245h1.813c.132 0 .24.11.24.245v2.903h2.779c.132 0 .24.11.24.245v1.338a.243.243 0 01-.24.245h-2.78zM78.766 17.164c0 .67-.2 1.285-.581 1.815-.388.531-.95.953-1.663 1.26-.719.308-1.581.465-2.556.465-.987 0-1.887-.175-2.669-.518-.775-.344-1.4-.815-1.85-1.405a3.37 3.37 0 01-.681-1.532c-.025-.145.1-.278.25-.278h1.981a.25.25 0 01.244.193c.112.428.375.802.787 1.104.507.374 1.144.56 1.894.56.782 0 1.4-.15 1.838-.445.456-.308.687-.712.687-1.2 0-.525-.262-.923-.775-1.176-.468-.23-1.218-.483-2.225-.76-.962-.254-1.75-.5-2.356-.736a4.142 4.142 0 01-1.525-1.073c-.419-.465-.631-1.098-.631-1.87 0-.627.2-1.212.587-1.736.388-.525.95-.947 1.681-1.249.732-.307 1.594-.464 2.557-.464 1.425 0 2.587.35 3.456 1.037.75.603 1.2 1.405 1.344 2.394a.246.246 0 01-.25.272h-1.882a.25.25 0 01-.243-.2 1.927 1.927 0 00-.707-1.097c-.45-.356-1.062-.537-1.812-.537-.737 0-1.313.14-1.712.417-.42.283-.632.669-.632 1.133 0 .362.15.7.425.953.263.241.594.428.969.567a25.5 25.5 0 001.613.488c.925.242 1.693.483 2.287.73a4.152 4.152 0 011.506 1.061c.413.453.625 1.068.644 1.827zM80.849 20.286a1.331 1.331 0 01-.468-1.034c0-.408.154-.757.468-1.033.313-.28.698-.419 1.154-.419.444 0 .823.138 1.137.419.314.28.468.625.468 1.033 0 .409-.154.758-.468 1.034-.314.28-.693.418-1.137.418-.462 0-.847-.137-1.154-.418zM88.125 5.054c0 .42-.135.758-.417 1.038a1.39 1.39 0 01-1.02.414c-.423 0-.763-.134-1.045-.414a1.394 1.394 0 01-.422-1.038c0-.414.14-.753.422-1.033a1.41 1.41 0 011.044-.42c.405 0 .734.14 1.021.42.282.28.417.619.417 1.033zM87.8 8.368v12.087c0 .137-.107.25-.238.25H85.78a.245.245 0 01-.239-.25V8.368c0-.137.108-.249.239-.249h1.78c.132 0 .24.112.24.25zM101.17 11.098a5.676 5.676 0 00-2.254-2.207c-.952-.513-2.033-.772-3.205-.772-1.179 0-2.26.26-3.206.772a5.686 5.686 0 00-2.26 2.207c-.55.953-.83 2.062-.83 3.298 0 1.255.275 2.37.806 3.317a5.781 5.781 0 002.217 2.207c.934.519 1.996.784 3.156.784 1.179 0 2.266-.265 3.243-.79a5.897 5.897 0 002.314-2.219c.562-.953.849-2.062.849-3.299 0-1.236-.281-2.345-.83-3.298zm-2.12 5.687c-.378.657-.879 1.151-1.49 1.483-.61.325-1.27.494-1.966.494-1.093 0-2.014-.386-2.735-1.145-.72-.76-1.087-1.84-1.087-3.22 0-.923.177-1.72.525-2.37.348-.645.825-1.146 1.423-1.472a3.922 3.922 0 011.942-.494c.696 0 1.355.163 1.954.494.604.326 1.093.82 1.46 1.472.36.645.549 1.447.549 2.37 0 .928-.196 1.73-.574 2.388z"
        fill="white"></path>
    <path
        d="M22.905 15.02l-2.035-1.166-2.824-1.614-.006.006L9.6 7.428v-.012L6.776 5.81V24.23c0 1.149.6 2.182 1.62 2.769.495.278 1.051.429 1.613.429.556 0 1.113-.151 1.62-.43l11.282-6.448a3.153 3.153 0 001.613-2.769 3.168 3.168 0 00-1.62-2.762zm-1.412 3.107L10.205 24.57a.38.38 0 01-.397 0 .395.395 0 01-.202-.338v-13.57l5.604 3.197 2.836 1.608 3.447 1.97a.396.396 0 010 .69z"
        fill="white"></path>
    <path
        d="M17.974 15.417L6.857 21.66l-.961.543-1.065.602a3.31 3.31 0 01-1.612.43c-.548 0-1.108-.15-1.607-.43C.602 22.233 0 21.212 0 20.073V7.357c0-1.14.596-2.16 1.612-2.732a3.218 3.218 0 013.213 0L6.86 5.777V8.97L3.42 7.029a.364.364 0 00-.401 0c-.061.03-.2.126-.2.334v12.715c0 .209.139.304.2.334a.38.38 0 00.401 0l2.47-1.396.962-.543 8.274-4.663 2.85 1.607z"
        fill="white"></path>
    <path
        d="M24.524 9.65c0 1.155-.599 2.189-1.614 2.77l-2.258 1.294-2.904-1.613 3.744-2.1a.398.398 0 00.202-.345.409.409 0 00-.202-.344L10.2 2.872a.41.41 0 00-.391-.006.389.389 0 00-.208.345v13.703L6.776 18.51V3.205c0-1.15.6-2.19 1.62-2.77a3.21 3.21 0 013.228 0L22.91 6.881a3.175 3.175 0 011.614 2.77z"
        fill="white"></path>
    <defs>
        <linearGradient id="logo-light1_svg__paint0_linear" x1="26.296" y1="4.377" x2="-5.393"
            y2="29.332" gradientUnits="userSpaceOnUse">
            <stop stop-color="white"></stop>
            <stop offset="1" stop-color="#008106"></stop>
        </linearGradient>
        <linearGradient id="logo-light1_svg__paint1_linear" x1="9.33" y1="4.441" x2="8.565"
            y2="23.451" gradientUnits="userSpaceOnUse">
            <stop stop-color="white"></stop>
            <stop offset="1" stop-color="#008106"></stop>
        </linearGradient>
        <linearGradient id="logo-light1_svg__paint2_linear" x1="14.069" y1="-2.02" x2="16.017"
            y2="18.077" gradientUnits="userSpaceOnUse">
            <stop stop-color="white"></stop>
            <stop offset="1" stop-color="#008106"></stop>
        </linearGradient>
    </defs>
</svg>