<svg width="880" height="97" viewBox="0 0 880 97" fill="none" xmlns="http://www.w3.org/2000/svg">
<path fill-rule="evenodd" clip-rule="evenodd" d="M859.004 58.261H810.524V95.0812H790.489V2.53561H810.524V39.3549H859.004V2.53561H879.038V95.0812H859.004V58.261ZM749.054 91.6558C741.266 95.0376 732.475 96.7276 722.689 96.7276C712.092 96.7276 702.803 94.7959 694.783 90.9535L694.758 90.9971C686.738 87.1328 680.589 81.6657 676.264 74.5523C671.939 67.4606 669.777 59.1615 669.777 49.6547V48.0956C669.777 38.5889 671.939 30.2897 676.264 23.1981C680.589 16.1064 686.738 10.5957 694.758 6.68694C702.778 2.77904 712.067 0.824646 722.664 0.824646C732.458 0.824646 741.241 2.51554 749.037 5.89734C756.826 9.27826 762.916 13.9985 767.324 20.0143C771.732 26.0302 773.936 32.8147 773.936 40.3234V41.4428H753.503V40.3234C753.503 36.4591 752.194 33.0346 749.56 30.0262C746.941 27.0187 743.279 24.6691 738.605 22.9782C733.932 21.2882 728.572 20.4314 722.523 20.4314C711.926 20.4314 703.906 22.7801 698.412 27.4785C692.951 32.1769 690.209 38.9614 690.209 47.7876V49.8955C690.209 58.8325 692.926 65.6162 698.353 70.2046C703.781 74.8158 711.884 77.1209 722.664 77.1209C732.019 77.1209 739.5 75.321 745.11 71.6983C750.719 68.0749 753.528 63.311 753.528 57.3824V56.3948H773.952V57.3824C773.952 64.9138 771.748 71.6539 767.348 77.6261C762.941 83.5983 756.826 88.2749 749.054 91.6558ZM639.071 75.9134H595.263L587.241 95.103H567.209V91.853L606.086 2.53561H628.259L667.118 91.853V95.103H647.092L639.071 75.9134ZM617.164 23.1317L602.869 57.5587H631.44H631.465L617.164 23.1317ZM479.64 2.53736H557.484V21.1555H499.672V39.4893H554.824V57.9749H499.672V76.4622H557.484V95.0812H479.64V2.53561V2.53736ZM437.082 61.4666L462.579 91.8094V95.0594H440.552L400.57 47.6567V44.4067H429.724C434.089 44.4067 437.435 43.5071 439.741 41.6627C442.048 39.84 443.211 37.1388 443.211 33.5607V32.0024C443.211 28.5325 442.069 25.8539 439.803 24.0322C437.538 22.2095 434.173 21.2882 429.724 21.2882H377.545V44.4285H374.553L357.513 23.2853V2.53736H429.601C440.011 2.53736 448.178 5.1941 454.1 10.5067C460.023 15.8211 462.974 23.1317 462.974 32.4404V33.9995L462.995 33.9559C462.995 41.4864 460.73 47.6349 456.241 52.4424C451.752 57.2297 445.352 60.2372 437.082 61.4666ZM315.33 55.9777C313.023 57.8004 311.86 60.5007 311.86 64.0797V65.638C311.86 69.107 313.003 71.7856 315.268 73.6074C317.533 75.43 320.899 76.3522 325.346 76.3522H377.526V53.211H380.519L397.558 74.3542V95.103H325.471C315.06 95.103 306.893 92.4463 300.971 87.1328C295.048 81.8193 292.098 74.5086 292.098 65.1991V63.64C292.098 56.1086 294.363 49.9619 298.851 45.1535C303.339 40.367 309.74 37.3587 318.011 36.1302L292.513 5.78653V2.53736H314.54L354.501 49.9837V53.2328H325.346C320.982 53.2328 317.636 54.1333 315.33 55.9777ZM199.711 2.53736H277.555V21.1555H219.743V39.4893H274.896V57.9749H219.743V76.4622H277.555V95.0812H199.711V2.53561V2.53736ZM126.273 95.1004L87.9324 5.78304V2.53387H108.506L137.89 74.3507L167.272 2.53387H187.824V5.78304L149.505 95.1004H126.273ZM0.343994 2.53736H78.1873V21.1555H20.3763V39.4893H75.5276V57.9749H20.3763V76.4622H78.1873V95.0812H0.343994V2.53561V2.53736Z" fill="white"/>
</svg>
