<svg viewBox="0 0 1378 110" fill="currentColor" xmlns="http://www.w3.org/2000/svg">
    <path
        d="m1332.4 23.866c1.45 0.856 3.959 1.535 7.518 2.038l16.306 2.341c7.437 1.106 12.906 3.095 16.445 5.989 3.529 2.893 5.288 6.895 5.288 12.028v0.981c0 6.241-2.759 11.073-8.247 14.546-5.489 3.473-13.267 5.209-23.274 5.209-9.997 0-18.424-1.888-23.863-5.637-5.438-3.775-8.147-9.285-8.147-16.558v-0.982h14.365v0.982c0 3.12 1.55 5.486 4.659 7.096 3.109 1.635 7.628 2.441 13.596 2.441 5.289 0 9.328-0.579 12.077-1.712 2.759-1.131 4.119-2.818 4.119-5.006v-0.681c0-1.761-0.78-3.094-2.33-4.051-1.559-0.93-4.319-1.711-8.257-2.29l-16.196-2.34c-13.966-2.089-20.954-7.851-20.954-17.338v-0.982c0-6.039 2.63-10.745 7.898-14.116 5.259-3.373 12.656-5.059 22.164-5.059 10.077 0 17.774 1.812 23.093 5.461 5.288 3.623 7.948 8.883 7.948 15.778v0.881h-14.376v-0.881c0-5.712-5.559-8.556-16.665-8.556-4.989 0-8.778 0.528-11.407 1.56-2.609 1.032-3.939 2.567-3.939 4.58v0.78c0 1.485 0.72 2.667 2.179 3.498zm-50.445 41.949h-39.768v-63.842h37.939c7.497 0 13.316 1.485 17.394 4.429 4.119 2.944 6.169 7.096 6.169 12.406v1.082c0 5.712-2.35 10.116-7.068 13.236 2.979 1.359 5.238 3.221 6.798 5.562l-0.05-0.025c1.549 2.339 2.329 5.058 2.329 8.178v1.082c0 5.511-2.129 9.89-6.398 13.085-4.259 3.196-10.047 4.807-17.345 4.807zm7.048-45.171c0-1.937-0.76-3.421-2.289-4.429-1.53-1.006-3.729-1.509-6.638-1.509h-23.374v12.858h23.274c6.018 0 9.027-1.987 9.027-5.937v-0.983zm1.849 25.114c0-4.025-3.029-6.039-9.127-6.039h-25.023v13.338h25.023c2.909 0 5.169-0.554 6.748-1.662 1.58-1.106 2.379-2.667 2.379-4.68v-0.957zm-77.697 6.82h-43.707l-2.03-3.044 21.794-47.561h16.077l28.22 61.602v2.24h-14.536l-5.818-13.237zm-15.895-36.388-10.387 23.756h20.764l-10.377-23.756zm8.047-14.217h-0.018l-0.012-0.025 0.03 0.025zm-92.293 63.867v-63.867h14.546v50.706h35l1.999 3.02-4.938 10.141h-46.607zm-77.028-0.025h-58.493v42.201h-24.173v-106.07h24.173v42.2h58.493v-42.2h24.173v106.07h-24.173v-42.201zm-132.66 38.275c-9.397 3.876-20.004 5.813-31.811 5.813-12.786 0-23.993-2.214-33.67-6.618l-0.03 0.05c-9.677-4.429-17.095-10.695-22.314-18.848-5.218-8.128-7.827-17.64-7.827-28.536v-1.787c0-10.896 2.609-20.408 7.827-28.536 5.219-8.128 12.637-14.444 22.314-18.924 9.677-4.479 20.884-6.719 33.67-6.719 11.817 0 22.414 1.938 31.821 5.814 9.397 3.875 16.745 9.285 22.064 16.18 5.318 6.895 7.977 14.671 7.977 23.277v1.283h-24.653v-1.283c0-4.429-1.579-8.354-4.758-11.802-3.159-3.447-7.578-6.14-13.217-8.078-5.638-1.937-12.106-2.919-19.404-2.919-12.786 0-22.463 2.692-29.091 8.077-6.589 5.385-9.898 13.161-9.898 23.277v2.416c0 10.243 3.279 18.018 9.827 23.277 6.549 5.285 16.326 7.927 29.332 7.927 11.287 0 20.314-2.063 27.082-6.215 6.768-4.153 10.157-9.613 10.157-16.408v-1.132h24.643v1.132c0 8.632-2.659 16.357-7.968 23.202-5.318 6.845-12.696 12.205-22.073 16.08zm-132.7-18.043h-52.857l-9.679 21.994h-24.17v-3.725l46.908-102.37h26.752l46.886 102.37v3.725h-24.163l-9.677-21.994zm-26.432-60.495-17.248 39.458h34.473 0.03l-17.255-39.458zm-165.93-23.604h93.923v21.339h-69.753v21.013h66.543v21.187h-66.543v21.189h69.753v21.34h-93.923v-106.07zm-51.349 67.541 30.764 34.777v3.725h-26.577l-48.24-54.33v-3.725h35.176c5.266 0 9.303-1.031 12.086-3.145 2.783-2.089 4.187-5.185 4.187-9.286v-1.786c0-3.977-1.379-7.047-4.112-9.135-2.733-2.089-6.794-3.145-12.161-3.145h-62.957v26.522h-3.61l-20.56-24.233v-23.78h86.978c12.561 0 22.414 3.045 29.56 9.134 7.146 6.091 10.706 14.47 10.706 25.139v1.787l0.026-0.05c0 8.631-2.733 15.678-8.149 21.188-5.416 5.487-13.138 8.934-23.117 10.343zm-146.9-6.291c-2.783 2.089-4.187 5.184-4.187 9.286v1.786c0 3.976 1.379 7.046 4.112 9.134 2.733 2.089 6.795 3.146 12.16 3.146h62.958v-26.523h3.611l20.559 24.233v23.781h-86.977c-12.561 0-22.416-3.045-29.561-9.135-7.146-6.09-10.706-14.469-10.706-25.139v-1.787c0-8.632 2.733-15.677 8.148-21.188 5.416-5.486 13.138-8.934 23.118-10.342l-30.765-34.778v-3.724h26.577l48.215 54.38v3.724h-35.177c-5.265 0-9.302 1.032-12.085 3.146zm-139.5-61.25h93.923v21.339h-69.753v21.013h66.544v21.187h-66.544v21.189h69.753v21.34h-93.923v-106.07zm-88.607 106.09-46.26-102.37v-3.724h24.823l35.453 82.312 35.452-82.312h24.797v3.724l-46.234 102.37h-28.031zm-151.94-106.09h93.922v21.339h-69.752v21.013h66.543v21.187h-66.543v21.189h69.752v21.34h-93.922v-106.07z"
        fill="#fff" fill-rule="evenodd"></path>
</svg>