<svg width="99" height="31" viewBox="0 0 99 31" fill="none" xmlns="http://www.w3.org/2000/svg">
<g clip-path="url(#clip0_715_64)">
<path d="M43.9032 14.9986V19.0087L43.7425 19.0895C43.4144 19.2535 43.0655 19.3826 42.7033 19.475C42.3386 19.5682 41.9573 19.6149 41.5709 19.6149C40.9006 19.6149 40.2611 19.485 39.6716 19.2277C39.0846 18.9712 38.5633 18.6173 38.122 18.176C37.6807 17.7347 37.3268 17.2118 37.0704 16.6215C36.8131 16.0278 36.6832 15.3841 36.6832 14.7072C36.6832 14.0302 36.8139 13.3974 37.0712 12.807C37.3277 12.22 37.6816 11.7004 38.1229 11.2624C38.5642 10.8245 39.0854 10.4731 39.6716 10.2175C40.2611 9.95933 40.9006 9.82944 41.5709 9.82944C42.2412 9.82944 42.8899 9.96516 43.4969 10.2324C43.9856 10.4489 44.4336 10.7345 44.8316 11.0843L46.0307 9.08504C45.4345 8.61209 44.7717 8.23906 44.0564 7.97427C43.2637 7.68117 42.4277 7.53296 41.5709 7.53296C40.9148 7.53296 40.2728 7.61872 39.6641 7.78942C39.0546 7.96095 38.4776 8.20408 37.9497 8.513C37.4218 8.82275 36.9313 9.19995 36.4925 9.63543C36.0554 10.0692 35.6765 10.5588 35.3676 11.0901C35.0578 11.623 34.8139 12.2 34.6432 12.8062C34.4733 13.4099 34.3867 14.0502 34.3867 14.7072C34.3867 15.3641 34.4733 16.0078 34.644 16.619C34.8147 17.2318 35.0578 17.8122 35.3676 18.3434C35.6765 18.8755 36.0554 19.3651 36.4925 19.7989C36.9322 20.2344 37.4226 20.6141 37.9513 20.9271C38.4792 21.2394 39.0554 21.4842 39.665 21.6549C40.2728 21.8248 40.9139 21.9114 41.5709 21.9114C42.4277 21.9114 43.2637 21.7631 44.0564 21.47C44.8066 21.1928 45.4994 20.7956 46.1189 20.2885V14.9986H43.9032Z" fill="white"/>
<path d="M61.6836 7.05841V21.5983H63.8793V7.05841H61.6836Z" fill="white"/>
<path d="M84.4728 16.34L88.214 11.3008H85.5711L83.2679 14.6206L80.9432 11.3008H78.2995L82.0306 16.34L78.2861 21.5983H80.9373L83.2679 18.0428L85.5769 21.5983H88.2264L84.4728 16.34Z" fill="white"/>
<path d="M96.8243 11.3615V17.051C96.8243 17.3758 96.7635 17.6955 96.6428 18.0011C96.5229 18.3042 96.3555 18.579 96.1465 18.8188C95.935 19.0602 95.6836 19.2576 95.3996 19.4058C95.1065 19.5582 94.791 19.6356 94.4621 19.6356C94.1332 19.6356 93.8309 19.5815 93.547 19.4757C93.2547 19.3667 92.9966 19.1993 92.7792 18.977C92.5636 18.758 92.3912 18.4832 92.2655 18.161C92.1423 17.8429 92.0798 17.469 92.0798 17.051V11.3615H89.9141V17.051C89.9141 17.7838 90.0348 18.4524 90.2721 19.0378C90.5086 19.6206 90.8358 20.121 91.2471 20.5257C91.6585 20.9304 92.1448 21.2476 92.6918 21.4675C93.2405 21.6881 93.8359 21.8005 94.4621 21.8005C94.7393 21.8005 95.0199 21.7431 95.2964 21.6298C95.6036 21.5049 95.9134 21.3759 96.2173 21.2476L96.8651 20.9737L96.6012 21.6257C96.4904 21.8979 96.3455 22.1527 96.169 22.3851C95.9917 22.6174 95.7827 22.8222 95.5487 22.9937C95.3139 23.1644 95.0557 23.3001 94.781 23.3976C94.502 23.495 94.2073 23.545 93.9067 23.545L92.6627 23.5283V25.724L93.7893 25.7398C94.502 25.7398 95.184 25.6025 95.811 25.3302C96.4405 25.0562 97.0008 24.679 97.4746 24.2086C97.9476 23.7381 98.3256 23.1811 98.5996 22.5516C98.8718 21.9238 99.0134 21.2418 99.02 20.5232V11.3615H96.8243Z" fill="white"/>
<path fill-rule="evenodd" clip-rule="evenodd" d="M58.7464 11.3816V11.3541H56.8446V12.3364C56.6797 12.1955 56.5072 12.0605 56.329 11.9336C56.0509 11.7363 55.7545 11.5606 55.4481 11.414C55.1433 11.2683 54.8252 11.1526 54.5013 11.0693C54.1832 10.9886 53.8577 10.9478 53.5329 10.9478C52.8143 10.9478 52.1299 11.081 51.4987 11.3441C50.8668 11.6072 50.3072 11.9819 49.8351 12.4574C49.363 12.9328 48.9849 13.5115 48.711 14.176C48.437 14.8413 48.2988 15.584 48.2988 16.3842C48.2988 17.2443 48.437 18.0195 48.711 18.6882C48.9841 19.3551 49.3613 19.9247 49.8318 20.3826C50.3022 20.8414 50.8601 21.1953 51.4904 21.436C52.1241 21.6774 52.8119 21.8007 53.5329 21.8007C53.8568 21.8007 54.1807 21.759 54.4963 21.6783C54.8169 21.5958 55.135 21.4809 55.4397 21.3377C55.747 21.1945 56.0434 21.023 56.3207 20.8281C56.5004 20.7019 56.6758 20.5686 56.8446 20.43V21.6225H58.7464V21.5983H58.7679V11.3816H58.7464ZM55.6879 18.6166C55.9593 18.3193 56.1758 17.9746 56.3332 17.5907C56.4922 17.2035 56.5722 16.798 56.5722 16.3842C56.5722 15.9704 56.4922 15.5649 56.3332 15.1777C56.1758 14.7938 55.9593 14.4483 55.6879 14.1518C55.4156 13.8537 55.0925 13.6114 54.7278 13.4307C54.3556 13.2459 53.9434 13.1526 53.5329 13.1526C53.1224 13.1526 52.7286 13.2242 52.363 13.3641C51.9925 13.5065 51.6653 13.7197 51.3913 13.997C51.1182 14.2734 50.9009 14.6181 50.746 15.0211C50.592 15.4208 50.5137 15.8788 50.5137 16.3842C50.5137 16.8896 50.592 17.3476 50.746 17.7464C50.9009 18.1494 51.1182 18.4942 51.3905 18.7706C51.6644 19.0487 51.9917 19.2619 52.363 19.4043C52.7278 19.5441 53.1124 19.6149 53.5329 19.6149C53.9534 19.6149 54.3556 19.5217 54.7278 19.3376C55.0925 19.1578 55.4148 18.9147 55.6879 18.6166Z" fill="white"/>
<path fill-rule="evenodd" clip-rule="evenodd" d="M76.4352 11.3816V11.3542H74.5334V12.3441C74.3656 12.2004 74.1901 12.0629 74.0087 11.9337C73.7314 11.7363 73.435 11.5607 73.1277 11.4141C72.8238 11.2684 72.5049 11.1526 72.1818 11.0694C71.8629 10.9886 71.5374 10.9478 71.2126 10.9478C70.494 10.9478 69.8096 11.081 69.1784 11.3442C68.5473 11.6073 67.9869 11.982 67.5156 12.4574C67.0427 12.9329 66.6646 13.5116 66.3907 14.176C66.1176 14.8413 65.9785 15.5841 65.9785 16.3843C65.9785 17.2444 66.1176 18.0196 66.3907 18.6882C66.6638 19.3552 67.041 19.9247 67.5114 20.3827C67.9827 20.8415 68.5406 21.1954 69.1701 21.436C69.8046 21.6775 70.4915 21.8007 71.2126 21.8007C71.5365 21.8007 71.8604 21.7591 72.176 21.6783C72.4974 21.5959 72.8147 21.481 73.1203 21.3378C73.4267 21.1945 73.7231 21.023 74.0004 20.8282C74.1833 20.6997 74.3618 20.5639 74.5334 20.4226V21.6226H76.4352V21.5984H76.4476V11.3816H76.4352ZM73.3676 18.6166C73.639 18.3194 73.8563 17.9746 74.0137 17.5908C74.1719 17.2036 74.2527 16.7981 74.2527 16.3843C74.2527 15.9704 74.1719 15.5649 74.0137 15.1777C73.8563 14.7939 73.639 14.4483 73.3676 14.1519C73.0953 13.8538 72.773 13.6115 72.4083 13.4308C72.0353 13.246 71.6231 13.1527 71.2126 13.1527C70.8021 13.1527 70.4091 13.2243 70.0427 13.3642C69.6722 13.5066 69.345 13.7197 69.071 13.997C68.7979 14.2735 68.5806 14.6182 68.4257 15.0212C68.2717 15.4209 68.1942 15.8788 68.1942 16.3843C68.1942 16.8897 68.2717 17.3476 68.4257 17.7465C68.5806 18.1495 68.7979 18.4942 69.071 18.7707C69.345 19.0488 69.6714 19.2619 70.0427 19.4043C70.4083 19.5442 70.7913 19.615 71.2126 19.615C71.634 19.615 72.0361 19.5217 72.4083 19.3377C72.7722 19.1579 73.0953 18.9147 73.3676 18.6166Z" fill="white"/>
<path d="M17.4953 9.70891C18.9853 10.6707 20.4826 10.5789 20.9298 10.5344C21.5998 10.4444 22.2444 10.3707 22.8553 10.3162C21.1344 7.44707 18.0716 5.61432 14.7334 5.44977C14.9625 5.99523 15.1898 6.57251 15.4152 7.17524C15.417 7.17524 15.4189 7.17524 15.4216 7.17524C15.5952 7.61434 16.1443 8.83708 17.4953 9.70891Z" fill="white"/>
<path d="M17.3568 21.5474C17.2123 20.5974 17.0341 19.591 16.8223 18.5446C17.0341 19.5919 17.2123 20.5983 17.3568 21.5474Z" fill="white"/>
<path d="M17.3604 21.5701C17.4004 21.8346 17.4376 22.0946 17.4731 22.3501C17.4385 22.0946 17.4004 21.8346 17.3604 21.5701Z" fill="white"/>
<path d="M12.8896 5.52985C12.896 5.54439 12.9024 5.55985 12.9096 5.57439C12.9033 5.55985 12.8969 5.54439 12.8906 5.52985H12.8896Z" fill="white"/>
<path d="M13.6955 7.50717C13.661 7.41717 13.6273 7.32717 13.5928 7.23899C13.5801 7.20626 13.5673 7.17353 13.5546 7.14172C13.5246 7.06535 13.4955 6.98989 13.4655 6.91535C13.4501 6.87717 13.4355 6.83989 13.4201 6.80171C13.391 6.72807 13.3619 6.65535 13.3328 6.58353C13.3201 6.5508 13.3064 6.51898 13.2937 6.48625C13.2519 6.38443 13.211 6.28352 13.1692 6.18443C13.1628 6.16898 13.1555 6.15261 13.1492 6.13716C13.1137 6.0517 13.0773 5.96716 13.0419 5.88261C13.0301 5.85352 13.0173 5.82534 13.0055 5.79715C12.9737 5.72261 12.941 5.64806 12.9092 5.57442C12.9028 5.55988 12.8964 5.54442 12.8892 5.52988C11.6628 2.74075 10.49 1.08619 9.70457 1.28619C8.88638 1.49437 8.66183 3.67258 8.97274 6.92535C6.14998 8.65537 4.34814 11.6909 4.18359 14.9982C5.85725 14.2964 7.81546 13.6082 9.93003 12.9736C10.3009 12.8627 10.6773 12.7536 11.0564 12.6463C11.4164 12.5209 12.5019 12.0954 13.2301 10.9509C14.1328 9.53174 13.8373 8.02991 13.6946 7.50808L13.6955 7.50717Z" fill="white"/>
<path d="M17.7467 24.9262C17.7449 24.9024 17.743 24.8776 17.7412 24.8537C17.743 24.8785 17.7449 24.9024 17.7467 24.9262Z" fill="white"/>
<path d="M28.4461 12.7899C28.4416 12.7717 28.4361 12.7535 28.4288 12.7363C28.4234 12.7208 28.417 12.7063 28.4097 12.6917C28.4088 12.6899 28.4079 12.6881 28.407 12.6863C28.407 12.6844 28.4061 12.6826 28.4052 12.6817C28.397 12.6654 28.3879 12.649 28.3779 12.6335C28.3679 12.6172 28.3561 12.6008 28.3434 12.5844C28.3316 12.569 28.3179 12.5535 28.3043 12.5381C28.2897 12.5226 28.2743 12.5072 28.2588 12.4926C28.2261 12.4635 28.1906 12.4353 28.1516 12.4081C28.0725 12.3535 27.9788 12.3035 27.8715 12.259C27.8179 12.2363 27.7615 12.2153 27.7006 12.1944C27.6406 12.1744 27.577 12.1553 27.5097 12.1372C27.4425 12.1199 27.3725 12.1026 27.2988 12.0872C27.2252 12.0708 27.1488 12.0563 27.0688 12.0435C27.0279 12.0363 26.9852 12.0299 26.9424 12.0235C26.9024 12.0172 26.8615 12.0117 26.8197 12.0072C26.777 12.0008 26.7334 11.9953 26.6888 11.9908C26.6388 11.9853 26.5879 11.9799 26.5361 11.9753C26.3561 11.9581 26.1661 11.9453 25.9652 11.9372C25.9197 11.9353 25.8743 11.9335 25.8279 11.9317C25.7679 11.9299 25.7079 11.9281 25.6461 11.9272C25.6006 11.9263 25.5542 11.9253 25.507 11.9244C25.4433 11.9235 25.3779 11.9235 25.3115 11.9235C25.2197 11.9235 25.127 11.9244 25.0315 11.9253C24.9661 11.9253 24.8997 11.9281 24.8324 11.9299C24.787 11.9308 24.7406 11.9317 24.6942 11.9335C24.5824 11.9363 24.4688 11.9408 24.3533 11.9463C24.2742 11.9499 24.1951 11.9535 24.1142 11.9581C23.9651 11.9663 23.8133 11.9753 23.6588 11.9863C23.6397 11.9872 23.6215 11.989 23.6024 11.9899C23.5524 11.9935 23.5024 11.9972 23.4524 12.0017C23.4006 12.0053 23.3479 12.0099 23.2951 12.0144C23.2542 12.0172 23.2133 12.0208 23.1724 12.0244C23.1069 12.0299 23.0415 12.0353 22.9751 12.0417C22.8679 12.0517 22.7588 12.0617 22.6497 12.0726C22.5933 12.0781 22.5378 12.0844 22.4824 12.0899C22.3706 12.1008 22.2588 12.1135 22.1451 12.1263C22.0878 12.1326 22.0306 12.1399 21.9724 12.1463C21.8615 12.1599 21.7487 12.1726 21.636 12.1872C21.3587 12.2335 19.6314 12.5654 18.7051 14.2026C17.966 15.509 18.2169 16.7972 18.2887 17.1181C18.3569 17.4327 18.4233 17.7454 18.4869 18.0554C18.9351 20.2518 19.2524 22.3218 19.4133 24.1246C22.3006 22.3927 24.1397 19.3018 24.2842 15.939C24.8124 15.7054 25.2979 15.4736 25.7379 15.2463C25.8188 15.2045 25.897 15.1636 25.9743 15.1217C26.0515 15.0808 26.1279 15.0399 26.2015 14.9981C26.2852 14.9527 26.367 14.9063 26.4461 14.8608C26.4606 14.8527 26.4752 14.8436 26.4897 14.8354C26.5315 14.8108 26.5734 14.7863 26.6143 14.7626C26.6188 14.7599 26.6224 14.7572 26.627 14.7545C26.6724 14.7281 26.7161 14.7017 26.7597 14.6745C26.8179 14.639 26.8743 14.6045 26.9297 14.569C26.9434 14.5599 26.957 14.5517 26.9706 14.5426C26.9843 14.5345 26.9979 14.5254 27.0115 14.5163C27.0924 14.4636 27.1706 14.4117 27.2452 14.3599C27.2779 14.3372 27.3115 14.3136 27.3434 14.2908C27.3452 14.2908 27.3461 14.289 27.3479 14.2881C27.4215 14.2354 27.4925 14.1836 27.5588 14.1317C27.5915 14.1063 27.6234 14.0817 27.6543 14.0563C27.7161 14.0072 27.7743 13.9581 27.8288 13.909C27.8534 13.8881 27.8761 13.8672 27.8988 13.8463C27.9525 13.7963 28.0025 13.7472 28.0488 13.699C28.0725 13.6745 28.0943 13.6499 28.1152 13.6263C28.1297 13.6099 28.1443 13.5935 28.1579 13.5772C28.1643 13.5699 28.1697 13.5626 28.1761 13.5554C28.1934 13.5354 28.2097 13.5145 28.2252 13.4945C28.2443 13.4699 28.2616 13.4454 28.2779 13.4208C28.2861 13.4099 28.2934 13.399 28.3006 13.3872C28.3079 13.3763 28.3143 13.3654 28.3206 13.3545C28.3252 13.3481 28.3297 13.3408 28.3334 13.3335C28.3425 13.319 28.3506 13.3044 28.3579 13.2899C28.3688 13.269 28.3797 13.249 28.3879 13.229C28.3961 13.2117 28.4034 13.1954 28.4097 13.1781C28.4143 13.1672 28.4179 13.1572 28.4216 13.1463C28.4279 13.129 28.4334 13.1108 28.4379 13.0935C28.4379 13.0935 28.4382 13.0929 28.4388 13.0917C28.4425 13.079 28.4452 13.0654 28.4479 13.0526C28.4488 13.0517 28.4488 13.0499 28.4488 13.049C28.4534 13.0299 28.4561 13.0108 28.4579 12.9917C28.4579 12.9854 28.4597 12.9781 28.4597 12.9717C28.4616 12.9554 28.4625 12.939 28.4625 12.9226C28.4625 12.8781 28.457 12.8335 28.4461 12.7908V12.7899Z" fill="white"/>
<path d="M17.7453 24.9256C17.7435 24.901 17.7417 24.8774 17.7399 24.8537C17.7362 24.8065 17.7326 24.7583 17.729 24.7101C17.7244 24.6465 17.719 24.5828 17.7135 24.5192C17.7072 24.4392 17.6999 24.3583 17.6926 24.2774C17.6881 24.2292 17.6835 24.181 17.679 24.1328C17.6735 24.0737 17.6681 24.0137 17.6617 23.9537C17.6572 23.9064 17.6526 23.8583 17.6472 23.8101C17.6399 23.7401 17.6326 23.6701 17.6253 23.5992C17.6208 23.561 17.6172 23.5237 17.6126 23.4855C17.6008 23.3764 17.5881 23.2664 17.5744 23.1555C17.5717 23.131 17.5681 23.1064 17.5653 23.0819C17.5544 22.9873 17.5426 22.8928 17.5299 22.7973C17.5262 22.7673 17.5226 22.7373 17.5181 22.7073C17.5053 22.6055 17.4917 22.5019 17.4772 22.3982C17.4753 22.3819 17.4726 22.3664 17.4708 22.3501C17.4362 22.0946 17.3981 21.8346 17.3581 21.5701C17.3572 21.5628 17.3553 21.5555 17.3544 21.5473C17.2099 20.5973 17.0317 19.5918 16.8199 18.5446C16.7735 18.3146 16.729 18.08 16.6744 17.8473C16.5517 17.3182 16.0444 16.1073 14.7271 15.2127C13.1344 14.1309 11.4644 14.3672 11.0734 14.4354C10.9434 14.4727 10.8143 14.5109 10.6862 14.5491C10.6734 14.5527 10.6616 14.5563 10.6489 14.56C10.6325 14.5645 10.6171 14.57 10.6007 14.5745C10.5352 14.5945 10.4689 14.6136 10.4034 14.6336C10.3698 14.6436 10.3362 14.6536 10.3025 14.6636C10.2425 14.6818 10.1825 14.7 10.1225 14.7182C9.87797 14.7927 9.63706 14.8672 9.39887 14.9427C9.31796 14.9691 9.23705 14.9945 9.15614 15.0209C9.05069 15.0545 8.94523 15.0882 8.84068 15.1227C8.75341 15.1509 8.66704 15.1791 8.58159 15.2073C8.51886 15.2282 8.45613 15.2491 8.3934 15.27C8.2934 15.3036 8.19431 15.3373 8.09522 15.3709C7.73249 15.4936 7.37885 15.6182 7.0343 15.7427C6.95611 15.7709 6.87793 15.7991 6.80066 15.8273C5.99974 16.1209 5.25246 16.4164 4.5679 16.71C4.46336 16.7545 4.36063 16.7991 4.25972 16.8436C4.24244 16.8509 4.22608 16.8582 4.20972 16.8664C4.20335 16.8682 4.19699 16.8718 4.19063 16.8745C4.16335 16.8864 4.13608 16.8982 4.10881 16.9109C4.04517 16.9391 3.98244 16.9673 3.91971 16.9955C3.84335 17.03 3.76789 17.0645 3.69426 17.0991C3.6488 17.12 3.60426 17.1409 3.55971 17.1618C3.42153 17.2264 3.28698 17.2909 3.15516 17.3555C3.01607 17.4236 2.88152 17.4918 2.75061 17.5591C2.57697 17.6491 2.4097 17.7373 2.2506 17.8264C2.20969 17.8482 2.16969 17.8709 2.12969 17.8936C2.0806 17.9209 2.03242 17.9482 1.98514 17.9764C1.94151 18.0009 1.89878 18.0264 1.85605 18.0518C1.85332 18.0527 1.8506 18.0546 1.84787 18.0564C1.80696 18.0809 1.76605 18.1055 1.72605 18.13C1.6406 18.1818 1.55787 18.2337 1.47877 18.2846C1.44696 18.3055 1.41605 18.3255 1.38514 18.3455C1.37514 18.3518 1.36514 18.3582 1.35605 18.3646C1.31968 18.3891 1.28423 18.4127 1.24877 18.4373C1.24695 18.4373 1.24604 18.4391 1.24423 18.44C1.20877 18.4646 1.17423 18.4882 1.14059 18.5127C1.06422 18.5664 0.991496 18.62 0.923313 18.6718C0.89604 18.6937 0.869676 18.7137 0.843313 18.7346C0.81513 18.7573 0.786948 18.78 0.759675 18.8027C0.75513 18.8064 0.749675 18.81 0.74513 18.8146C0.718766 18.8355 0.693311 18.8573 0.668765 18.8791C0.641492 18.9028 0.614219 18.9264 0.588764 18.95C0.558764 18.9764 0.530581 19.0028 0.504217 19.0291C0.483308 19.05 0.462399 19.07 0.443308 19.09C0.42058 19.1128 0.399671 19.1355 0.377852 19.1573C0.356943 19.1809 0.336943 19.2037 0.317852 19.2264C0.313306 19.2309 0.30876 19.2364 0.304215 19.2418C0.289669 19.2591 0.276033 19.2755 0.262396 19.2928C0.244214 19.3146 0.22785 19.3373 0.212396 19.3591C0.196032 19.3809 0.181486 19.4018 0.166941 19.4237C0.15785 19.4373 0.148759 19.4518 0.140577 19.4655C0.131486 19.48 0.123304 19.4937 0.115122 19.5082C0.107849 19.5209 0.101485 19.5346 0.0942124 19.5482C0.0842123 19.5664 0.0760304 19.5846 0.0678485 19.6028C0.0560301 19.63 0.04603 19.6564 0.036939 19.6828C0.0333026 19.6937 0.0296662 19.7046 0.0269389 19.7155C0.018757 19.7428 0.0123932 19.7691 0.00875684 19.7955C0.00693864 19.8055 0.00512043 19.8155 0.00421133 19.8255C-0.00397059 19.8955 -0.00033418 19.9637 0.0160297 20.0282C0.0251207 20.0646 0.0387572 20.1 0.055121 20.1337C0.072394 20.1682 0.0933033 20.2009 0.117849 20.2328H0.118758C0.128758 20.2473 0.139668 20.26 0.151486 20.2728C0.16785 20.2909 0.185123 20.3082 0.203305 20.3255C0.219669 20.34 0.236941 20.3546 0.255123 20.3682C0.256942 20.3709 0.25876 20.3728 0.261487 20.3737C0.276942 20.3864 0.294215 20.3982 0.311488 20.41C0.331488 20.4237 0.351488 20.4373 0.373307 20.45C0.416035 20.4764 0.462399 20.501 0.51149 20.5246C0.536945 20.5364 0.563309 20.5482 0.590582 20.5591C0.64331 20.5819 0.700584 20.6028 0.760584 20.6237C0.821494 20.6437 0.885131 20.6628 0.952405 20.681C1.01877 20.6982 1.08877 20.7155 1.16241 20.731H1.16332C1.20059 20.7391 1.23695 20.7464 1.27605 20.7537C1.31059 20.76 1.34605 20.7664 1.38241 20.7728C1.43332 20.7819 1.48514 20.79 1.53878 20.7973C1.61423 20.8082 1.69241 20.8182 1.77332 20.8273C1.77787 20.8273 1.78241 20.8273 1.78696 20.8291C1.79787 20.8291 1.80878 20.831 1.81969 20.8319C1.88423 20.8391 1.9506 20.8455 2.01878 20.851C2.02424 20.8519 2.0306 20.8519 2.03696 20.8528C2.04151 20.8528 2.04515 20.8537 2.04969 20.8537C2.09696 20.8582 2.14515 20.8619 2.19424 20.8646C2.29242 20.8719 2.39333 20.8764 2.49697 20.881C2.54879 20.8837 2.60152 20.8855 2.65424 20.8873C2.70788 20.8891 2.76152 20.89 2.81606 20.891C2.92516 20.8937 3.03607 20.8946 3.15061 20.8946C3.22789 20.8946 3.30607 20.8946 3.38607 20.8928C3.43971 20.8928 3.49425 20.8928 3.5488 20.89C3.57516 20.89 3.60153 20.8891 3.62789 20.8882C4.24154 20.8737 4.91973 20.831 5.65337 20.761C7.38703 23.5901 10.4334 25.3937 13.7498 25.5501C13.7635 25.551 13.7771 25.5519 13.7907 25.5519C15.0044 28.292 16.1617 29.912 16.939 29.7138C17.6835 29.5238 17.9362 27.7038 17.7417 24.9265L17.7453 24.9256Z" fill="white"/>
</g>
<defs>
<clipPath id="clip0_715_64">
<rect width="99" height="30" fill="white" transform="translate(0 0.5)"/>
</clipPath>
</defs>
</svg>
