<svg width="82" height="48" viewBox="0 0 82 48" fill="none" xmlns="http://www.w3.org/2000/svg">
    <path
        d="M73.5155 27.9039H64.9957V14.3475L55.9738 0H42.4381L35.7893 11.0747C34.0819 3.46692 27.1433 0 22.0239 0H0L7.63305 13.3594H21.4787C22.6495 13.3594 22.6983 14.7558 22.6954 14.8558C22.6926 14.9929 22.6552 16.1894 21.209 16.178H9.24001L23.4501 41.0547L10.649 48L35.2154 42.5597C37.6746 42.0143 40.1969 41.5916 42.7336 41.2975L41.4653 43.3279L47.2675 43.7934C52.5562 44.2189 56.9982 45.1214 62.6054 46.9148C63.1133 47.0776 63.6327 47.2004 64.1492 47.2775L64.5997 47.346C65.1163 47.426 65.6414 47.466 66.1608 47.466C69.2829 47.466 72.2443 46.0209 74.0837 43.5992C74.6719 42.8253 75.1339 41.9771 75.4668 41.0861H81.8028L73.5184 27.9067L73.5155 27.9039ZM73.989 38.1504C73.8885 39.6697 73.3491 41.1233 72.4193 42.3484C70.9731 44.2561 68.6315 45.3927 66.1579 45.3927C65.7447 45.3927 65.3257 45.3613 64.9125 45.2984L64.4649 45.2299C64.0574 45.1671 63.6442 45.07 63.2396 44.9415C57.4717 43.0995 52.8919 42.1685 47.434 41.7287L45.0321 41.5345L46.7022 38.8586L45.7409 38.93C42.0392 39.2013 38.3432 39.7439 34.7591 40.5378L24.5951 42.7882L33.1435 38.1504H25.1776L14.3019 19.1109H21.2061C24.2651 19.1109 25.6396 16.6235 25.6396 14.8558C25.6396 13.0881 24.3483 10.4265 21.4759 10.4265H9.34332L5.06192 2.93289H22.0211C26.6755 2.93289 33.2296 6.594 33.2296 14.733C33.2296 21.4412 28.4087 24.4712 26.4086 25.4393L33.6141 37.8934L33.7347 37.8277C36.366 36.3998 39.0864 35.129 41.8842 34.0095L33.8265 20.0476L44.1024 2.93003H52.889L52.1917 4.08948C49.919 7.87339 47.6463 11.6602 45.3736 15.4441L42.5557 20.1361L49.1213 31.5164C50.8975 30.9995 52.7025 30.5369 54.5304 30.1371V3.24703L62.0372 15.1899V28.8234L64.0057 28.5264L62.1061 30.6568L63.7819 30.1371C64.8896 29.7944 66.089 29.7001 67.2541 29.8629C68.2383 30.0029 69.1853 30.3398 70.0462 30.8339H71.8741L76.4711 38.1475H73.9804L73.989 38.1504ZM38.1136 33.3584C37.1294 33.7982 36.1566 34.258 35.1924 34.7377L30.3773 26.416C31.1607 25.8163 32.0014 25.0623 32.7906 24.1371L38.1136 33.3584ZM51.592 28.7063C51.3911 28.7577 51.1931 28.8063 50.9951 28.8577L45.982 20.1675L51.5949 10.8206V28.7035L51.592 28.7063Z"
        fill="#EFEDF3"></path>
    <path
        d="M72.4939 37.0881C72.3447 33.6497 69.4895 30.8996 66.0001 30.8996C65.2913 30.8996 64.6083 31.0138 63.9713 31.2223C63.4634 31.3879 58.8434 33.5554 56.8548 34.5521C57.9395 33.207 59.0643 31.8791 60.2265 30.574C50.7139 32.0076 42.0105 35.0062 34.4463 39.1099C39.3274 38.0305 44.3664 37.4079 49.5001 37.2822C48.8315 38.2703 48.1858 39.267 47.5574 40.2694C50.5905 40.5121 53.4371 40.8862 56.2608 41.4403C58.301 41.8401 63.6786 43.4536 63.9914 43.5221C64.6256 43.7277 65.2999 43.8391 66.0001 43.8391C68.6344 43.8391 70.9071 42.2713 71.9286 40.0238C72.2988 39.2584 72.5111 38.3989 72.5111 37.4936C72.5111 37.3565 72.5054 37.2223 72.4968 37.0852L72.4939 37.0881ZM71.6962 37.3708C71.6962 37.3708 71.6962 37.3965 71.6962 37.4108C71.524 37.3165 71.3145 37.1594 71.3145 37.168C71.085 37.0195 70.8353 36.9767 70.6431 36.9653C70.4479 36.9567 70.2987 36.9738 70.2011 36.9852C70.1007 36.9967 70.0462 37.0081 70.0462 37.0081C70.0462 37.0081 70.0318 37.0138 70.006 37.0281C69.9974 37.0338 69.983 37.0395 69.9716 37.0452C69.8654 36.851 69.7535 36.6597 69.6358 36.4741C69.6473 36.4541 69.6617 36.4369 69.6731 36.4169C69.9171 36.0257 70.1208 35.6145 70.2413 35.1861C70.3016 34.9748 70.3446 34.7577 70.3475 34.5493C70.3475 34.4465 70.3418 34.3465 70.3245 34.2523C70.3159 34.2066 70.2987 34.1666 70.2872 34.1266C70.2671 34.0923 70.2528 34.0552 70.2298 34.0352C70.2298 34.0695 70.2241 34.1495 70.2097 34.2494C70.1954 34.3522 70.1524 34.4836 70.1007 34.6149C69.9888 34.8748 69.8166 35.1233 69.7219 35.2032C69.6731 35.2832 69.6043 35.3546 69.5469 35.4174C69.4866 35.4802 69.4206 35.5345 69.369 35.5802C69.3173 35.6259 69.2657 35.6573 69.2341 35.683C69.1997 35.7059 69.1796 35.7173 69.1796 35.7173C69.1796 35.7173 69.1796 35.7373 69.171 35.7715C69.171 35.7744 69.171 35.7801 69.1681 35.783C69.082 35.6687 68.9873 35.5574 68.8955 35.446C69.0791 35.2032 69.2226 34.9405 69.303 34.6778C69.3604 34.4864 69.389 34.298 69.3977 34.1209C69.4034 33.9438 69.3833 33.7811 69.3575 33.6354C69.2943 33.3413 69.191 33.1157 69.0877 32.9386C68.9988 32.7872 68.9098 32.673 68.8295 32.5816C68.8524 32.5959 68.7692 32.4874 68.663 32.3532C70.468 33.3041 71.7019 35.1918 71.7019 37.3679L71.6962 37.3708ZM64.7174 42.8939C62.8436 42.4655 61.3256 41.1147 60.6627 39.3498C60.8406 39.3698 61.0501 39.3927 61.271 39.4184C61.9023 39.5012 62.6427 39.5983 63.0674 39.8039C63.3314 39.7953 63.5954 39.7668 63.8594 39.7468C64.1234 39.7211 64.3903 39.6925 64.6571 39.6583C65.2798 39.4555 65.8939 39.2213 66.4965 38.9472C66.4965 38.9472 66.4076 38.9415 66.4248 38.8815C66.4334 38.8529 66.4707 38.8101 66.5568 38.7473C66.5998 38.7158 66.6572 38.6787 66.729 38.6387C66.8007 38.593 66.8868 38.5445 66.9901 38.4874C67.2885 38.3275 67.696 38.0904 68.0863 37.8363C68.465 37.5935 68.8151 37.3194 69.0619 37.1138C69.1136 37.228 69.1652 37.3479 69.2111 37.4679C69.2226 37.4936 69.2312 37.5193 69.2427 37.5478C69.0304 37.7306 68.8094 37.9505 68.6057 38.1875C68.0088 38.8729 67.5497 39.6697 67.5037 39.7811C67.4578 39.8924 67.2082 40.4293 66.8897 40.9691C66.5711 41.5117 66.1665 42.0543 65.8796 42.1799C65.6098 42.2999 65.2999 42.574 65.0101 42.7454C64.9097 42.811 64.8121 42.8596 64.7231 42.9024L64.7174 42.8939ZM62.4275 32.9557C62.9497 32.8872 63.7303 32.95 63.9225 32.97C64.3271 33.0071 64.6629 33.1414 64.8609 33.2956C65.4434 33.4184 65.957 33.7039 66.3846 34.0838C66.772 34.3237 67.1307 34.6321 67.455 34.9862C67.4406 34.9976 67.4263 35.0062 67.4119 35.0176C67.3832 35.0433 67.3517 35.0604 67.3201 35.0804C67.2598 35.1233 67.191 35.1547 67.1278 35.1947C67.0934 35.2089 67.059 35.2261 67.0245 35.2432C66.9901 35.2604 66.9499 35.2718 66.9155 35.2861C66.6228 35.4003 66.2612 35.4574 65.9829 35.4945C65.8423 35.5088 65.7246 35.5231 65.6414 35.5288C65.5582 35.5374 65.5123 35.5402 65.5123 35.5402C65.2569 35.5916 64.99 35.6345 64.7203 35.6802C64.5825 35.5631 64.4419 35.446 64.2984 35.3289C63.5036 35.4831 62.6656 35.6773 61.9167 36.0286C61.799 36.0828 61.6843 36.1371 61.5666 36.1828C61.4518 36.237 61.3313 36.277 61.2165 36.3256C60.9095 36.4455 60.6168 36.5911 60.3413 36.7625C60.5077 35.2261 61.2883 33.8782 62.4361 32.9586L62.4275 32.9557ZM60.4561 36.8596C60.6283 36.8225 60.7976 36.7853 60.9669 36.7625C61.3055 36.7168 61.6412 36.7025 61.9712 36.7225C62.6312 36.7625 63.2568 36.9167 63.8938 37.1109C63.8938 37.1109 63.977 37.0823 64.1521 37.0452C64.3271 37.0081 64.5969 36.9653 64.9785 36.931C65.3602 36.891 65.8537 36.8739 66.4879 36.7853C66.8036 36.7368 67.1623 36.6625 67.5382 36.5026C67.63 36.4626 67.7276 36.4227 67.8194 36.3684C67.8653 36.3427 67.9141 36.317 67.96 36.2913C68.0059 36.2599 68.0518 36.2313 68.0977 36.1999C68.1924 36.1428 68.2757 36.0657 68.3675 35.9943C68.3847 35.98 68.4019 35.9657 68.4191 35.9486C68.4536 35.9971 68.488 36.0485 68.5253 36.1057C68.5798 36.1913 68.6372 36.2884 68.6975 36.3941C68.3847 36.6168 68.0576 36.8139 67.7161 36.9938C67.2943 37.3879 66.8265 37.7534 66.3301 38.0904C65.6357 38.3446 65.0043 38.5416 64.8035 38.6644C64.6313 38.7673 64.33 38.9043 64.0144 38.9957C63.9369 39.0186 63.8565 39.0414 63.779 39.0614C63.7016 39.0785 63.6241 39.0928 63.5495 39.1071C63.4031 39.1299 63.2683 39.1414 63.165 39.1328C63.0616 39.1242 62.8177 39.1357 62.5136 39.1614C62.3615 39.1756 62.1922 39.1813 62.0171 39.1956C61.8421 39.207 61.6642 39.2242 61.4834 39.2327C61.3055 39.2442 61.1304 39.2527 60.9697 39.2613C60.8492 39.267 60.7373 39.2727 60.634 39.2756C60.4188 38.6787 60.2983 38.039 60.2983 37.3708C60.2983 37.2108 60.3097 37.0566 60.3212 36.8996C60.3643 36.8881 60.4102 36.871 60.4532 36.8596H60.4561ZM68.0891 32.2218C68.1924 32.356 68.2986 32.5188 68.3876 32.7073C68.5196 32.9843 68.6057 33.3184 68.5827 33.6154C68.5626 33.9124 68.4306 34.1552 68.2584 34.2808C68.2154 34.3151 68.1752 34.3494 68.1322 34.3865C68.0834 34.3294 68.0375 34.2722 67.9887 34.2237C67.7247 33.9353 67.4808 33.7468 67.3459 33.6697C67.1106 33.5383 66.7318 33.3041 66.3272 33.1271C65.9255 32.9415 65.4979 32.8072 65.2339 32.7044C65.1679 32.673 65.0531 32.6473 64.8982 32.613C64.8207 32.6016 64.7346 32.5902 64.6399 32.5788C64.5452 32.5702 64.4419 32.5673 64.3329 32.5645C64.221 32.5645 63.2338 32.6759 62.7317 32.733C63.6585 32.0847 64.7834 31.702 66.0001 31.702C66.6802 31.702 67.3316 31.8277 67.937 32.0447C67.9973 32.1019 68.0518 32.1618 68.0891 32.2247V32.2218ZM65.9972 43.0424C65.6644 43.0424 65.343 43.0081 65.0273 42.9538C65.0876 42.9396 65.1478 42.9224 65.2052 42.9024C65.4577 42.8196 65.7045 42.6968 65.9427 42.5597C66.2124 42.2827 66.4563 41.9886 66.6888 41.6916L66.9298 41.6116C67.2857 41.1318 67.6214 40.6492 67.9543 40.1609C67.9543 40.1609 68.1953 39.8296 68.4708 39.4498C68.6057 39.267 68.7491 39.0728 68.8869 38.89C69.016 38.713 69.1222 38.5559 69.1738 38.4417C69.2054 38.376 69.2915 38.2418 69.4321 38.079C69.5268 38.3789 69.6014 38.6587 69.6502 38.8843C69.7248 39.2242 69.808 39.5612 69.8941 39.8924C69.9888 40.2665 70.0605 40.8977 70.0806 41.3232C69.0447 42.3827 67.6013 43.0424 65.9972 43.0424ZM70.7435 40.0809C70.7435 40.0809 70.732 40.0552 70.7091 40.0095C70.689 39.9638 70.6603 39.8953 70.6316 39.8096C70.5713 39.6354 70.5053 39.387 70.4651 39.0728C70.4077 38.5274 70.3016 37.9876 70.1581 37.4564C70.293 37.3765 70.4422 37.3079 70.6115 37.268C70.7607 37.2337 70.9271 37.228 71.0907 37.268C71.1768 37.2908 71.26 37.3251 71.3375 37.3708C71.4178 37.4136 71.5843 37.485 71.6905 37.565C71.6531 38.6159 71.3317 39.5954 70.7951 40.4265C70.7722 40.2551 70.7464 40.0781 70.7464 40.0781L70.7435 40.0809Z"
        fill="#EFEDF3"></path>
</svg>