<svg width="202" height="64" viewBox="0 0 202 64" fill="none" xmlns="http://www.w3.org/2000/svg">
<g clip-path="url(#clip0_13_19)">
<path d="M133.516 35.9039H124.996V22.3475L115.974 8H102.438L95.7893 19.0747C94.0819 11.4669 87.1433 8 82.0239 8H60L67.633 21.3594H81.4787C82.6495 21.3594 82.6983 22.7558 82.6954 22.8558C82.6926 22.9929 82.6552 24.1894 81.209 24.178H69.24L83.4501 49.0547L70.649 56L95.2154 50.5597C97.6746 50.0143 100.197 49.5916 102.734 49.2975L101.465 51.3279L107.268 51.7934C112.556 52.2189 116.998 53.1214 122.605 54.9148C123.113 55.0776 123.633 55.2004 124.149 55.2775L124.6 55.346C125.116 55.426 125.641 55.466 126.161 55.466C129.283 55.466 132.244 54.0209 134.084 51.5992C134.672 50.8253 135.134 49.9771 135.467 49.0861H141.803L133.518 35.9067L133.516 35.9039ZM133.989 46.1504C133.888 47.6697 133.349 49.1233 132.419 50.3484C130.973 52.2561 128.631 53.3927 126.158 53.3927C125.745 53.3927 125.326 53.3613 124.912 53.2984L124.465 53.2299C124.057 53.1671 123.644 53.07 123.24 52.9415C117.472 51.0995 112.892 50.1685 107.434 49.7287L105.032 49.5345L106.702 46.8586L105.741 46.93C102.039 47.2013 98.3432 47.7439 94.7591 48.5378L84.5951 50.7882L93.1435 46.1504H85.1776L74.3019 27.1109H81.2061C84.2651 27.1109 85.6396 24.6235 85.6396 22.8558C85.6396 21.0881 84.3483 18.4265 81.4759 18.4265H69.3433L65.0619 10.9329H82.0211C86.6755 10.9329 93.2296 14.594 93.2296 22.733C93.2296 29.4412 88.4087 32.4712 86.4086 33.4393L93.6141 45.8934L93.7347 45.8277C96.366 44.3998 99.0864 43.129 101.884 42.0095L93.8265 28.0476L104.102 10.93H112.889L112.192 12.0895C109.919 15.8734 107.646 19.6602 105.374 23.4441L102.556 28.1361L109.121 39.5164C110.897 38.9995 112.702 38.5369 114.53 38.1371V11.247L122.037 23.1899V36.8234L124.006 36.5264L122.106 38.6568L123.782 38.1371C124.89 37.7944 126.089 37.7001 127.254 37.8629C128.238 38.0029 129.185 38.3398 130.046 38.8339H131.874L136.471 46.1475H133.98L133.989 46.1504ZM98.1136 41.3584C97.1294 41.7982 96.1566 42.258 95.1924 42.7377L90.3773 34.416C91.1607 33.8163 92.0014 33.0623 92.7906 32.1371L98.1136 41.3584ZM111.592 36.7063C111.391 36.7577 111.193 36.8063 110.995 36.8577L105.982 28.1675L111.595 18.8206V36.7035L111.592 36.7063Z" fill="#EFEDF3"/>
<path d="M132.494 45.0881C132.345 41.6497 129.49 38.8996 126 38.8996C125.291 38.8996 124.608 39.0138 123.971 39.2223C123.463 39.3879 118.843 41.5554 116.855 42.5521C117.94 41.207 119.064 39.8791 120.227 38.574C110.714 40.0076 102.011 43.0062 94.4463 47.1099C99.3274 46.0305 104.366 45.4079 109.5 45.2822C108.832 46.2703 108.186 47.267 107.557 48.2694C110.591 48.5121 113.437 48.8862 116.261 49.4403C118.301 49.8401 123.679 51.4536 123.991 51.5221C124.626 51.7277 125.3 51.8391 126 51.8391C128.634 51.8391 130.907 50.2713 131.929 48.0238C132.299 47.2584 132.511 46.3989 132.511 45.4936C132.511 45.3565 132.505 45.2223 132.497 45.0852L132.494 45.0881ZM131.696 45.3708C131.696 45.3708 131.696 45.3965 131.696 45.4108C131.524 45.3165 131.315 45.1594 131.315 45.168C131.085 45.0195 130.835 44.9767 130.643 44.9653C130.448 44.9567 130.299 44.9738 130.201 44.9852C130.101 44.9967 130.046 45.0081 130.046 45.0081C130.046 45.0081 130.032 45.0138 130.006 45.0281C129.997 45.0338 129.983 45.0395 129.972 45.0452C129.865 44.851 129.754 44.6597 129.636 44.4741C129.647 44.4541 129.662 44.4369 129.673 44.4169C129.917 44.0257 130.121 43.6145 130.241 43.1861C130.302 42.9748 130.345 42.7577 130.348 42.5493C130.348 42.4465 130.342 42.3465 130.325 42.2523C130.316 42.2066 130.299 42.1666 130.287 42.1266C130.267 42.0923 130.253 42.0552 130.23 42.0352C130.23 42.0695 130.224 42.1495 130.21 42.2494C130.195 42.3522 130.152 42.4836 130.101 42.6149C129.989 42.8748 129.817 43.1233 129.722 43.2032C129.673 43.2832 129.604 43.3546 129.547 43.4174C129.487 43.4802 129.421 43.5345 129.369 43.5802C129.317 43.6259 129.266 43.6573 129.234 43.683C129.2 43.7059 129.18 43.7173 129.18 43.7173C129.18 43.7173 129.18 43.7373 129.171 43.7715C129.171 43.7744 129.171 43.7801 129.168 43.783C129.082 43.6687 128.987 43.5574 128.896 43.446C129.079 43.2032 129.223 42.9405 129.303 42.6778C129.36 42.4864 129.389 42.298 129.398 42.1209C129.403 41.9438 129.383 41.7811 129.358 41.6354C129.294 41.3413 129.191 41.1157 129.088 40.9386C128.999 40.7872 128.91 40.673 128.83 40.5816C128.852 40.5959 128.769 40.4874 128.663 40.3532C130.468 41.3041 131.702 43.1918 131.702 45.3679L131.696 45.3708ZM124.717 50.8939C122.844 50.4655 121.326 49.1147 120.663 47.3498C120.841 47.3698 121.05 47.3927 121.271 47.4184C121.902 47.5012 122.643 47.5983 123.067 47.8039C123.331 47.7953 123.595 47.7668 123.859 47.7468C124.123 47.7211 124.39 47.6925 124.657 47.6583C125.28 47.4555 125.894 47.2213 126.497 46.9472C126.497 46.9472 126.408 46.9415 126.425 46.8815C126.433 46.8529 126.471 46.8101 126.557 46.7473C126.6 46.7158 126.657 46.6787 126.729 46.6387C126.801 46.593 126.887 46.5445 126.99 46.4874C127.289 46.3275 127.696 46.0904 128.086 45.8363C128.465 45.5935 128.815 45.3194 129.062 45.1138C129.114 45.228 129.165 45.3479 129.211 45.4679C129.223 45.4936 129.231 45.5193 129.243 45.5478C129.03 45.7306 128.809 45.9505 128.606 46.1875C128.009 46.8729 127.55 47.6697 127.504 47.7811C127.458 47.8924 127.208 48.4293 126.89 48.9691C126.571 49.5117 126.167 50.0543 125.88 50.1799C125.61 50.2999 125.3 50.574 125.01 50.7454C124.91 50.811 124.812 50.8596 124.723 50.9024L124.717 50.8939ZM122.428 40.9557C122.95 40.8872 123.73 40.95 123.923 40.97C124.327 41.0071 124.663 41.1414 124.861 41.2956C125.443 41.4184 125.957 41.7039 126.385 42.0838C126.772 42.3237 127.131 42.6321 127.455 42.9862C127.441 42.9976 127.426 43.0062 127.412 43.0176C127.383 43.0433 127.352 43.0604 127.32 43.0804C127.26 43.1233 127.191 43.1547 127.128 43.1947C127.093 43.2089 127.059 43.2261 127.025 43.2432C126.99 43.2604 126.95 43.2718 126.916 43.2861C126.623 43.4003 126.261 43.4574 125.983 43.4945C125.842 43.5088 125.725 43.5231 125.641 43.5288C125.558 43.5374 125.512 43.5402 125.512 43.5402C125.257 43.5916 124.99 43.6345 124.72 43.6802C124.583 43.5631 124.442 43.446 124.298 43.3289C123.504 43.4831 122.666 43.6773 121.917 44.0286C121.799 44.0828 121.684 44.1371 121.567 44.1828C121.452 44.237 121.331 44.277 121.217 44.3256C120.91 44.4455 120.617 44.5911 120.341 44.7625C120.508 43.2261 121.288 41.8782 122.436 40.9586L122.428 40.9557ZM120.456 44.8596C120.628 44.8225 120.798 44.7853 120.967 44.7625C121.306 44.7168 121.641 44.7025 121.971 44.7225C122.631 44.7625 123.257 44.9167 123.894 45.1109C123.894 45.1109 123.977 45.0823 124.152 45.0452C124.327 45.0081 124.597 44.9653 124.979 44.931C125.36 44.891 125.854 44.8739 126.488 44.7853C126.804 44.7368 127.162 44.6625 127.538 44.5026C127.63 44.4626 127.728 44.4227 127.819 44.3684C127.865 44.3427 127.914 44.317 127.96 44.2913C128.006 44.2599 128.052 44.2313 128.098 44.1999C128.192 44.1428 128.276 44.0657 128.368 43.9943C128.385 43.98 128.402 43.9657 128.419 43.9486C128.454 43.9971 128.488 44.0485 128.525 44.1057C128.58 44.1913 128.637 44.2884 128.698 44.3941C128.385 44.6168 128.058 44.8139 127.716 44.9938C127.294 45.3879 126.827 45.7534 126.33 46.0904C125.636 46.3446 125.004 46.5416 124.804 46.6644C124.631 46.7673 124.33 46.9043 124.014 46.9957C123.937 47.0186 123.857 47.0414 123.779 47.0614C123.702 47.0785 123.624 47.0928 123.55 47.1071C123.403 47.1299 123.268 47.1414 123.165 47.1328C123.062 47.1242 122.818 47.1357 122.514 47.1614C122.362 47.1756 122.192 47.1813 122.017 47.1956C121.842 47.207 121.664 47.2242 121.483 47.2327C121.306 47.2442 121.13 47.2527 120.97 47.2613C120.849 47.267 120.737 47.2727 120.634 47.2756C120.419 46.6787 120.298 46.039 120.298 45.3708C120.298 45.2108 120.31 45.0566 120.321 44.8996C120.364 44.8881 120.41 44.871 120.453 44.8596H120.456ZM128.089 40.2218C128.192 40.356 128.299 40.5188 128.388 40.7073C128.52 40.9843 128.606 41.3184 128.583 41.6154C128.563 41.9124 128.431 42.1552 128.258 42.2808C128.215 42.3151 128.175 42.3494 128.132 42.3865C128.083 42.3294 128.038 42.2722 127.989 42.2237C127.725 41.9353 127.481 41.7468 127.346 41.6697C127.111 41.5383 126.732 41.3041 126.327 41.1271C125.926 40.9415 125.498 40.8072 125.234 40.7044C125.168 40.673 125.053 40.6473 124.898 40.613C124.821 40.6016 124.735 40.5902 124.64 40.5788C124.545 40.5702 124.442 40.5673 124.333 40.5645C124.221 40.5645 123.234 40.6759 122.732 40.733C123.659 40.0847 124.783 39.702 126 39.702C126.68 39.702 127.332 39.8277 127.937 40.0447C127.997 40.1019 128.052 40.1618 128.089 40.2247V40.2218ZM125.997 51.0424C125.664 51.0424 125.343 51.0081 125.027 50.9538C125.088 50.9396 125.148 50.9224 125.205 50.9024C125.458 50.8196 125.705 50.6968 125.943 50.5597C126.212 50.2827 126.456 49.9886 126.689 49.6916L126.93 49.6116C127.286 49.1318 127.621 48.6492 127.954 48.1609C127.954 48.1609 128.195 47.8296 128.471 47.4498C128.606 47.267 128.749 47.0728 128.887 46.89C129.016 46.713 129.122 46.5559 129.174 46.4417C129.205 46.376 129.292 46.2418 129.432 46.079C129.527 46.3789 129.601 46.6587 129.65 46.8843C129.725 47.2242 129.808 47.5612 129.894 47.8924C129.989 48.2665 130.061 48.8977 130.081 49.3232C129.045 50.3827 127.601 51.0424 125.997 51.0424ZM130.744 48.0809C130.744 48.0809 130.732 48.0552 130.709 48.0095C130.689 47.9638 130.66 47.8953 130.632 47.8096C130.571 47.6354 130.505 47.387 130.465 47.0728C130.408 46.5274 130.302 45.9876 130.158 45.4564C130.293 45.3765 130.442 45.3079 130.612 45.268C130.761 45.2337 130.927 45.228 131.091 45.268C131.177 45.2908 131.26 45.3251 131.338 45.3708C131.418 45.4136 131.584 45.485 131.691 45.565C131.653 46.6159 131.332 47.5954 130.795 48.4265C130.772 48.2551 130.746 48.0781 130.746 48.0781L130.744 48.0809Z" fill="#EFEDF3"/>
</g>
<defs>
<clipPath id="clip0_13_19">
<rect width="82" height="48" fill="white" transform="translate(60 8)"/>
</clipPath>
</defs>
</svg>
